<?xml version="1.0" encoding="UTF-8" standalone="no"?>
<!-- Uploaded to: SVG Repo, www.svgrepo.com, Transformed by: SVG Repo Mixer Tools -->

<!-- SVG URL: https://www.svgrepo.com/svg/310300/arrow-enter -->

<svg
   width="64px"
   height="64px"
   viewBox="0 0 24 24"
   version="1.1"
   fill="#ffffff"
   id="svg1"
   sodipodi:docname="login.svg"
   inkscape:version="1.3 (1:1.3+202307231459+0e150ed6c4)"
   xmlns:inkscape="http://www.inkscape.org/namespaces/inkscape"
   xmlns:sodipodi="http://sodipodi.sourceforge.net/DTD/sodipodi-0.dtd"
   xmlns="http://www.w3.org/2000/svg"
   xmlns:svg="http://www.w3.org/2000/svg">
  <defs
     id="defs1" />
  <sodipodi:namedview
     id="namedview1"
     pagecolor="#505050"
     bordercolor="#eeeeee"
     borderopacity="1"
     inkscape:showpageshadow="0"
     inkscape:pageopacity="0"
     inkscape:pagecheckerboard="0"
     inkscape:deskcolor="#505050"
     inkscape:zoom="7.875"
     inkscape:cx="31.936508"
     inkscape:cy="32"
     inkscape:window-width="1360"
     inkscape:window-height="704"
     inkscape:window-x="0"
     inkscape:window-y="27"
     inkscape:window-maximized="1"
     inkscape:current-layer="svg1" />
  <g
     id="SVGRepo_bgCarrier"
     stroke-width="0" />
  <g
     id="SVGRepo_tracerCarrier"
     stroke-linecap="round"
     stroke-linejoin="round" />
  <g
     id="SVGRepo_iconCarrier">
    <!-- Uploaded to: SVG Repo, www.svgrepo.com, Transformed by: SVG Repo Mixer Tools -->
    <title
       id="title1">ic_fluent_arrow_enter_24_regular</title>
    <desc
       id="desc1">Created with Sketch.</desc>
    <g
       id="ðŸ”-System-Icons"
       stroke="none"
       stroke-width="1"
       fill="none"
       fill-rule="evenodd">
      <g
         id="ic_fluent_arrow_enter_24_regular"
         fill="#f0f0f8"
         fill-rule="nonzero">
        <path
           d="M21.25,4 C21.6642136,4 22,4.33578644 22,4.75 L22,4.75 L22,11.25 C22,13.3210678 20.3210678,15 18.25,15 L18.25,15 L4.58583574,15 L8.30516583,18.7196699 C8.57143239,18.9859365 8.59563844,19.4026002 8.37778398,19.6962117 L8.30516583,19.7803301 C8.03889927,20.0465966 7.62223558,20.0708027 7.32862409,19.8529482 L7.24450566,19.7803301 L2.24450566,14.7803301 C1.97823909,14.5140635 1.95403304,14.0973998 2.1718875,13.8037883 L2.24450566,13.7196699 L7.24450566,8.71966991 C7.53739888,8.4267767 8.01227261,8.4267767 8.30516583,8.71966991 C8.57143239,8.98593648 8.59563844,9.40260016 8.37778398,9.69621165 L8.30516583,9.78033009 L4.58583574,13.5 L18.25,13.5 C19.440864,13.5 20.4156449,12.5748384 20.4948092,11.4040488 L20.5,11.25 L20.5,4.75 C20.5,4.33578644 20.8357864,4 21.25,4 Z"
           id="ðŸŽ¨-Color" />
      </g>
    </g>
  </g>
</svg>
