<svg width="64px" height="64px" viewBox="0 0 64 64" xmlns="http://www.w3.org/2000/svg" fill="#f0f0f8" stroke-width="0">
  <rect x="0" y="0" width="64" height="64" fill="none" stroke-width="1" stroke="#f0f0f8" />
  <rect x="1" y="1" width="62" height="62" fill="none" stroke-width="1" stroke="#7b7b7b" />

  <path d="M 16 2
          h 32
          c 4 0, 4 4, 4 4
          v 4
          c 0 4, -4 4, -4 4
          h -15
          c -2 0, -2 2, -2 2
          v 21
          c 0 2, 2 2, 2 2
          c 2 0, 2 -2, 2 -2
          v -18

          c 0 -3, 3 -3, 3 -3
          h 3
          c 0 0, -3 0, -3 3

          v 19
          c 0 4, -4 4, -4 4
          h -2
          c -4 0, -4 -4, -4 -4
          v -23
          c 0 -4, 4 -4, 4 -4
          h 14
          c 3 0, 3 -3, 3 -3
          c 0 -3, -3 -3, -3 -3
          h -28
          c -3 0, -3 3, -3 3
          c 0 3, 3 3, 3 3
          h 5

          c 3 0, 3 3, 3 3
          v 3
          c 0 0, 0 -3, -3 -3

          h -7
          c -4 0, -4 -4, -4 -4
          v -4
          c 0 -4, 4 -4, 4 -4" />

  <g>
    <path d="M 17.8 5
            h 28.3
            c 3 0, 3 3, 3 3
            c 0 3, -3 3, -3 3
            h -28.3
            c -3 0, -3 -3, -3 -3
            c 0 -3, 3 -3, 3 -3"
          fill="#7b7b7b" />

    <g stroke="#f0f0f8" stroke-width="0.4" stroke-linecap="round" stroke-linejoin="round">
      <g fill="none">
        <circle cx="19" cy="8" r="2" />
        <path d="M 17.8 7.8
                l .9 .9
                l 1.5 -1.5"/>
      </g>

      <g font-size="4" font-family="Arial, Helvetica, sans-serif">
        <line x1="22.5" y1="8.1" x2="47.2" y2="8.2" />
        <text x="23" y="9.4">D</text>
        <text x="30" y="9.4">O</text>
        <text x="37" y="9.4">E</text>
        <text x="44" y="9.4">R</text>
      </g>
    </g>
  </g>
</svg>
