<svg xmlns="http://www.w3.org/2000/svg" width="64" height="64" fill="#f0f0f8" stroke-width="0" viewBox="0 0 44 44"><path d="M6 2h32c4 0 4 4 4 4v4c0 4-4 4-4 4H25c-4 0-4 4-4 4v20c0 1 1 1 1 1 1 0 1-1 1-1V20c0-4 4-4 4-4h3s-4 0-4 4v19c0 3-3 3-3 3h-2c-3 0-3-3-3-3V15c0-4 4-4 4-4h14c3 0 3-3 3-3 0-3-3-3-3-3H8C5 5 5 8 5 8c0 3 3 3 3 3h4c4 0 4 4 4 4v3s0-4-4-4H6c-4 0-4-4-4-4V6c0-4 4-4 4-4"/><path fill="#7b7b7b" d="M7.8 5h28.3c3 0 3 3 3 3 0 3-3 3-3 3H7.8c-3 0-3-3-3-3 0-3 3-3 3-3"/><g stroke="#f0f0f8" stroke-linecap="round" stroke-linejoin="round" stroke-width=".4"><g fill="none"><circle cx="9" cy="8" r="2"/><path d="m7.75 7.9.9.9 1.5-1.5"/></g><g font-family="Arial, Helvetica, sans-serif" font-size="4"><path d="m12.5 8.1 24.7.1"/><text x="13" y="9.4">D</text><text x="20" y="9.4">O</text><text x="27" y="9.4">E</text><text x="34" y="9.4">R</text></g></g></svg>