<svg width="64px" height="64px" viewBox="0 0 44 44" xmlns="http://www.w3.org/2000/svg" fill="#f0f0f8" stroke-width="0">
  <!-- <rect x="0" y="0" width="44" height="44" fill="none" stroke-width="1" stroke="#f0f0f8" />
  <rect x="1" y="1" width="42" height="42" fill="none" stroke-width="1" stroke="#7b7b7b" /> -->

  <path d="M 6 2
          h 32
          c 4 0, 4 4, 4 4
          v 4
          c 0 4, -4 4, -4 4
          h -13
          c -4 0, -4 4, -4 4
          v 20
          c 0 1, 1 1, 1 1
          c 1 0, 1 -1, 1 -1
          v -18

          c 0 -4, 4 -4, 4 -4
          h 3
          c 0 0, -4 0, -4 4

          v 19
          c 0 3, -3 3, -3 3
          h -2
          c -3 0, -3 -3, -3 -3
          v -24
          c 0 -4, 4 -4, 4 -4
          h 14
          c 3 0, 3 -3, 3 -3
          c 0 -3, -3 -3, -3 -3
          h -28
          c -3 0, -3 3, -3 3
          c 0 3, 3 3, 3 3
          h 4

          c 4 0, 4 4, 4 4
          v 3
          c 0 0, 0 -4, -4 -4

          h -6
          c -4 0, -4 -4, -4 -4
          v -4
          c 0 -4, 4 -4, 4 -4" />

  <g>
    <path d="M 7.8 5
            h 28.3
            c 3 0, 3 3, 3 3
            c 0 3, -3 3, -3 3
            h -28.3
            c -3 0, -3 -3, -3 -3
            c 0 -3, 3 -3, 3 -3"
          fill="#7b7b7b" />

    <g stroke="#f0f0f8" stroke-width="0.4" stroke-linecap="round" stroke-linejoin="round">
      <g fill="none">
        <circle cx="9" cy="8" r="2" />
        <path d="M 7.75 7.9
                l 0.9 0.9
                l 1.5 -1.5"/>
      </g>

      <g font-size="4" font-family="Arial, Helvetica, sans-serif">
        <line x1="12.5" y1="8.1" x2="37.2" y2="8.2" />
        <text x="13" y="9.4">D</text>
        <text x="20" y="9.4">O</text>
        <text x="27" y="9.4">E</text>
        <text x="34" y="9.4">R</text>
      </g>
    </g>
  </g>
</svg>
