<svg viewBox="0 0 64 64" width="64" height="64" xmlns="http://www.w3.org/2000/svg" stroke="#f0f0f8">
  <defs>
    <g id="border">
      <rect x="0" y="0" width="64" height="64" />
      <rect x="1" y="1" width="62" height="62" stroke="grey" />
      <circle cx="1" cy="1" r=".1" />
      <circle cx="63" cy="1" r=".1" />
      <circle cx="1" cy="63" r=".1" />
      <circle cx="63" cy="63" r=".1" />
    </g>
  </defs>
  <use href="#border" />

  <path d="M 16 2
          h 32
          c 4 0, 4 4, 4 4
          v 4
          c 0 4, -4 4, -4 4
          h -15
          c -2 0, -2 2, -2 2
          v 21
          c 0 2, 2 2, 2 2
          c 2 0, 2 -2, 2 -2
          v -18

          c 0 -3, 3 -3, 3 -3
          h 3
          c 0 0, -3 0, -3 3

          v 18
          c 0 4, -4 4, -4 4
          h -2
          c -4 0, -4 -4, -4 -4
          v -22
          c 0 -4, 4 -4, 4 -4
          h 14
          c 3 0, 3 -3, 3 -3
          c 0 -3, -3 -3, -3 -3
          h -28
          c -3 0, -3 3, -3 3
          c 0 3, 3 3, 3 3
          h 5

          c 3 0, 3 3, 3 3
          v 3
          c 0 0, 0 -3, -3 -3

          h -7
          c -4 0, -4 -4, -4 -4
          v -4
          c 0 -4, 4 -4, 4 -4"
        stroke="none"
        fill="#f0f0f8" />

  <g>
    <path d="M 18 5
            h 28
            c 3 0, 3 3, 3 3
            c 0 3, -3 3, -3 3
            h -28
            c -3 0, -3 -3, -3 -3
            c 0 -3, 3 -3, 3 -3"
          fill="grey"
          stroke="grey" />

    <g stroke-width="0.4">
      <circle cx="19" cy="8" r="2" fill="grey" />
      <path d="M 17.8 7.8
              l .9 .9
              l 1.5 -1.5"
              fill="none"/>
    </g>

    <g stroke-width="0.4">
      <line x1="23" y1="8.1" x2="46.7" y2="8.1" />
      <text x="23.5" y="9.4" font-size="4" word-spacing="2">D O E R</text>
    </g>
  </g>
</svg>
